# xmcd
#
# Track frame offsets:
#	183
#	16328
#	33505
#	46603
#	64235
#	89840
#	103020
#	118795
#	128270
#	152520
#	166238
#	197020
#	211150
#	217100
#	224198
#	236953
#	250215
#	263100
#	277395
#
# Disc length: 3797 seconds
# Revision: 0
# Processed by: cddbd v1.5.1PL0 Copyright (c) Steve Scherf et al.
# Submitted via: cdrLabel 7.1
#
DISCID=220ed313
DTITLE=Bruno  Laplante and France  Duval  -    Noel
DYEAR=1996
DGENRE=
TTITLE0=Stille  Nacht
TTITLE1=Minuit  ,  Chrtien
TTITLE2=Ave  verum  corpus
TTITLE3=Panis  angelicus
TTITLE4=Repentir
TTITLE5=Benedictus
TTITLE6=Jesus bleibet meine Freude
TTITLE7=Bist du bei mir
TTITLE8=Ave Maria
TTITLE9=Still wie die nacht
TTITLE10=O mon cher fils
TTITLE11=Dans le silence de la nuit
TTITLE12=La ou qu'tu cours donc si vite ?
TTITLE13=Allons coutez l'aubade
TTITLE14=Dors ma colombe
TTITLE15=Bereuse du dbut de la colonie
TTITLE16=Ave Maria
TTITLE17=El noi de la mare
TTITLE18=Still nacht - reprise
EXTD=
EXTT0=
EXTT1=
EXTT2=
EXTT3=
EXTT4=
EXTT5=
EXTT6=
EXTT7=
EXTT8=
EXTT9=
EXTT10=
EXTT11=
EXTT12=
EXTT13=
EXTT14=
EXTT15=
EXTT16=
EXTT17=
EXTT18=
PLAYORDER=
